<svg width="30" height="31" viewBox="0 0 30 31" fill="none" xmlns="http://www.w3.org/2000/svg">
<path d="M2.39113 30.1382C2.34163 30.1228 2.29425 30.0941 2.24263 30.0926C1.73857 30.0624 1.25745 29.9552 0.837306 29.6573C0.461526 29.3893 0.219155 29.0274 0.0908771 28.5858C-0.116783 27.8693 0.058883 27.1974 0.341397 26.5443C0.667073 25.7924 1.13521 25.1256 1.67247 24.5126C2.13337 23.9868 2.83543 23.9914 3.37812 24.5084C3.85471 24.963 3.90784 25.5536 3.52511 26.09C3.1596 26.6031 2.77053 27.1011 2.53843 27.6951C2.52152 27.7386 2.50824 27.7839 2.48681 27.8512C2.54286 27.8557 2.59919 27.8557 2.65524 27.8512C3.05939 27.7745 3.47018 27.7163 3.86558 27.6097C4.33281 27.4857 4.79522 27.3381 5.24827 27.1693C6.05989 26.8675 6.81779 26.4555 7.54822 25.9952C7.84492 25.8084 8.13438 25.6098 8.42685 25.4163C8.52102 25.3541 8.53159 25.2986 8.44225 25.2096C7.76387 24.5338 7.17906 23.7702 6.7034 22.9392C6.37138 22.3657 6.08977 21.7645 5.91864 21.121C5.80183 20.68 5.70977 20.2321 5.61379 19.7856C5.46981 19.1135 5.47766 18.4301 5.51388 17.7507C5.54229 17.3135 5.60108 16.8788 5.68985 16.4498C5.8634 15.5621 6.13233 14.7037 6.54131 13.8918C7.00226 12.9703 7.6203 12.1362 8.36769 11.427C9.15578 10.6797 10.0323 10.0585 11.0238 9.61273C11.4584 9.41714 11.9012 9.23001 12.3567 9.09267C13.0965 8.86992 13.8565 8.72021 14.6334 8.72082C15.1999 8.72082 15.7692 8.72897 16.3315 8.78843C16.7803 8.83582 17.2225 8.95806 17.6638 9.06189C18.2216 9.19664 18.7609 9.39875 19.2698 9.66374C19.6417 9.8548 20.0123 10.0525 20.3634 10.278C21.1128 10.7591 21.7672 11.3543 22.35 12.0265C22.7814 12.5196 23.1573 13.0587 23.4707 13.634C23.5196 13.7246 23.5803 13.8088 23.6376 13.8996C24.4149 13.395 25.0532 12.7648 25.6554 12.0938C26.3393 11.3308 26.9883 10.5415 27.4664 9.62873C27.575 9.42197 27.6475 9.1956 27.7308 8.97617C27.7471 8.9324 27.7377 8.87898 27.7419 8.79507C27.4793 8.83702 27.2264 8.84759 26.9928 8.92063C26.5189 9.06883 26.0571 9.25476 25.5869 9.41744C25.0738 9.59462 24.5045 9.3435 24.2144 8.80956C23.8193 8.08154 24.0756 7.40091 24.8365 7.08731C25.2965 6.89776 25.7665 6.72873 26.2412 6.57932C26.9789 6.34752 27.7389 6.26119 28.498 6.43384C29.1799 6.58868 29.6776 7.00732 29.9 7.68161C30.0356 8.0924 30.0208 8.52493 29.9302 8.95474C29.715 9.97613 29.2107 10.8602 28.639 11.7123C27.9674 12.714 27.2183 13.6555 26.4178 14.5576C25.6276 15.448 24.8036 16.3067 23.934 17.1184C22.9486 18.0383 21.9525 18.9484 20.9335 19.8303C20.1089 20.5454 19.2593 21.2341 18.3927 21.8979C17.2968 22.7373 16.1869 23.5604 15.0563 24.3521C14.1149 25.0113 13.1481 25.636 12.1687 26.2373C11.2254 26.8165 10.265 27.3713 9.28707 27.8892C8.48179 28.316 7.65115 28.6999 6.81206 29.0534C6.13716 29.338 5.43329 29.5538 4.73908 29.7859C4.20949 29.9663 3.65671 30.0696 3.09772 30.0926C3.05275 30.0926 3.00898 30.1228 2.96461 30.1388L2.39113 30.1382Z" fill="white"/>
<path d="M6.64305 1.98535C6.9983 2.01553 7.35235 2.01916 7.69614 2.08133C8.95115 2.30801 10.0513 2.84527 10.9728 3.74261C11.564 4.31871 12.037 5.00474 12.3652 5.76217C12.504 6.0806 12.5952 6.42227 12.6827 6.76002C12.7461 7.00481 12.7687 7.26015 12.8077 7.51098C12.8194 7.58704 12.8077 7.63775 12.7111 7.66189C11.3869 7.99149 10.1419 8.51155 9.00548 9.26763C8.08546 9.88321 7.2697 10.6418 6.58902 11.5148C6.08225 12.1598 5.65998 12.8561 5.28058 13.5802C5.18611 13.7613 5.10854 13.9502 5.02614 14.1368C4.99264 14.2119 4.9534 14.2385 4.86315 14.2156C4.02164 14.0007 3.28457 13.5868 2.62115 13.0384C1.50282 12.1187 0.746636 10.8324 0.486899 9.40799C0.355301 8.70351 0.352584 7.99783 0.446454 7.29305C0.513974 6.80896 0.642467 6.33535 0.828874 5.8835C1.13122 5.13215 1.57953 4.4482 2.14788 3.87119C2.73358 3.27407 3.43356 2.80105 4.20606 2.48035C4.63414 2.30048 5.08058 2.1679 5.53744 2.08496C5.90054 2.01855 6.27512 2.01614 6.64305 1.98535Z" fill="white"/>
<path d="M16.1523 3.2402C16.1735 2.42525 16.5073 1.62902 17.1608 0.990047C17.9123 0.25539 18.8308 -0.0705878 19.8842 0.0127176C20.6916 0.0767058 21.3755 0.422604 21.9439 0.981294C22.6079 1.62993 22.9574 2.44487 22.9562 3.36214C22.955 4.2794 22.6333 5.10793 21.972 5.77105C21.2995 6.44595 20.4722 6.78128 19.5247 6.77344C17.6114 6.75714 16.1871 5.24979 16.1523 3.2402Z" fill="white"/>
<path d="M12.7261 27.5538C16.949 24.8694 20.9451 21.8438 24.6744 18.5073C24.6744 18.8161 24.6907 19.0808 24.671 19.3437C24.6229 19.9227 24.5133 20.495 24.3442 21.0509C24.0572 22.0262 23.6193 22.9507 23.0463 23.7906C22.3358 24.8352 21.4387 25.6837 20.3826 26.373C19.6862 26.8332 18.9325 27.2001 18.1406 27.4642C17.8017 27.5755 17.4494 27.6468 17.1017 27.7298C16.2702 27.929 15.4235 27.935 14.5778 27.8898C14.1912 27.8692 13.8075 27.792 13.4236 27.7325C13.1945 27.6969 12.9678 27.6456 12.74 27.6015L12.7261 27.5538Z" fill="white"/>
</svg>
