<svg width="30" height="33" viewBox="0 0 30 33" fill="none" xmlns="http://www.w3.org/2000/svg">
<path d="M14.9305 32.2279C14.7596 32.2279 13.6122 31.5556 13.221 31.3536C11.8426 30.6468 10.4633 29.9414 9.08337 29.2376C7.92258 28.6457 6.76083 28.0556 5.59812 27.4672C4.68928 27.0053 3.78203 26.5389 2.87254 26.0801C2.10786 25.6934 1.34179 25.3092 0.574331 24.9276C0.194978 24.7391 -0.00222202 24.4708 1.88871e-05 24.0118C0.0160254 20.571 0.0118637 17.129 0.0125039 13.6892C0.0125039 11.7526 0.0100496 9.81614 0.00514096 7.87979C0.00514096 7.53789 0.133193 7.29459 0.436676 7.13933C1.03628 6.83392 1.63268 6.52308 2.23228 6.21832C3.16354 5.74484 4.09768 5.27553 5.02861 4.80206C5.8904 4.36413 6.75155 3.92501 7.61206 3.48473C8.65013 2.95438 9.68831 2.42489 10.7266 1.89625C11.7411 1.377 12.7527 0.852305 13.7678 0.336576C14.4398 -0.0523814 14.9379 0.00268089 14.9379 0.00268089H15C15.1114 0.00268089 15.3464 0.00524192 15.4802 0.00908348C15.5368 0.0123392 15.5921 0.0275018 15.6425 0.0535815C16.3617 0.416395 17.0801 0.781449 17.7976 1.14874C19.0201 1.77172 20.2427 2.39458 21.4653 3.01734C22.3984 3.4922 23.3319 3.9661 24.2658 4.43904C25.1131 4.86972 25.9606 5.30018 26.8083 5.73044C27.6986 6.18278 28.5863 6.63993 29.4795 7.08619C29.8242 7.25842 30.0003 7.51036 30 7.90572C29.9962 13.3266 29.9953 18.7467 29.9974 24.1661C29.9974 24.4603 29.8739 24.6824 29.6114 24.8156C28.8181 25.2186 28.0213 25.6159 27.2283 26.018C25.9425 26.6736 24.6574 27.3313 23.373 27.991C21.8219 28.783 20.2702 29.5741 18.718 30.3644C17.8703 30.7963 17.0213 31.2252 16.1746 31.66C15.9582 31.7717 15.1329 32.2279 14.9305 32.2279ZM29.0127 18.058C29.023 17.9517 29.0342 17.8883 29.0342 17.8249C29.0342 14.6563 29.0357 11.4878 29.0387 8.31933C29.0387 8.0661 28.9407 7.90316 28.7227 7.79239C27.8346 7.34421 26.947 6.89496 26.0598 6.44465C24.8914 5.85241 23.723 5.25963 22.5547 4.66633C21.2061 3.97933 19.8582 3.29062 18.5109 2.60021C17.6798 2.17572 16.8486 1.75166 16.0174 1.32802C15.8554 1.24574 15.6883 1.17275 15.494 1.0812C15.4869 1.19708 15.4783 1.27328 15.478 1.35235C15.469 3.74649 15.4604 6.14084 15.452 8.53541C15.4501 9.17023 15.4383 9.80537 15.4591 10.4395C15.4664 10.6604 15.5452 10.8829 15.6163 11.0964C15.7069 11.3695 15.9412 11.536 16.1301 11.7367C16.4291 12.0549 16.713 12.3869 16.9999 12.7163C17.0732 12.8002 17.1305 12.8101 17.1999 12.7163C17.2694 12.6225 17.3443 12.5326 17.4179 12.442C17.8341 11.9297 18.2634 11.4281 18.6665 10.9053C19.2475 10.1533 19.9511 9.67956 20.9455 9.87484C21.2115 9.92702 21.473 10.0451 21.7138 10.1767C22.0723 10.3736 22.3095 10.7107 22.5781 11.0091C23.3016 11.8065 24.0321 12.5975 24.7572 13.3934C25.5682 14.2844 26.3784 15.1765 27.1877 16.0697C27.6267 16.5533 28.0656 17.0371 28.5044 17.5211C28.6603 17.6911 28.8213 17.856 29.0127 18.058ZM14.4849 1.10297C14.4295 1.11677 14.375 1.13431 14.322 1.15547C13.9395 1.34755 13.5578 1.54069 13.1769 1.7349C12.1339 2.26845 11.0912 2.802 10.0489 3.33555C8.97304 3.88639 7.89708 4.43722 6.82102 4.98806C6.06359 5.37381 5.30297 5.75349 4.54394 6.13604C3.44824 6.68837 2.35222 7.2406 1.25589 7.79271C1.05965 7.89163 0.944401 8.03537 0.960407 8.26618C0.968731 8.38847 0.968411 8.5114 0.968411 8.63401C0.968411 11.0565 0.968411 13.4789 0.968411 15.901V16.1286C1.01091 16.0929 1.05151 16.0551 1.09006 16.0152C1.24468 15.8286 1.3961 15.6391 1.55137 15.4525C2.3073 14.5446 3.06345 13.637 3.8198 12.7298C4.45398 11.9656 5.08047 11.1951 5.71721 10.4331C5.95731 10.145 6.25887 9.92478 6.61678 9.81401C7.28905 9.60561 7.90306 9.76663 8.42167 10.2177C8.96237 10.688 9.47329 11.1928 9.9903 11.6903C10.0966 11.7927 10.1446 11.7863 10.231 11.6704C10.6411 11.1185 11.0451 10.5612 11.4795 10.0288C12.1643 9.18976 13.2441 9.03642 14.1366 9.62481C14.249 9.69908 14.3556 9.78264 14.4856 9.87676L14.4849 1.10297ZM16.0923 24.2605C16.1774 24.3165 16.2178 24.3485 16.2629 24.3719C17.0203 24.765 17.7755 25.1626 18.5397 25.5429C18.6316 25.5887 18.7894 25.5749 18.8857 25.5282C19.728 25.1085 20.5632 24.6741 21.401 24.2451C21.5022 24.1933 21.5066 24.1536 21.3981 24.103C21.2992 24.0572 21.206 23.9967 21.11 23.9468C20.4422 23.6023 19.7722 23.2623 19.107 22.9131C18.9591 22.8356 18.8284 22.8263 18.6882 22.916C18.6392 22.948 18.5839 22.9678 18.532 22.9944C17.877 23.3271 17.2223 23.6603 16.568 23.9938C16.4185 24.0703 16.2748 24.1577 16.0923 24.2605ZM13.9128 24.2778C13.8418 24.232 13.8011 24.2013 13.7566 24.1782C12.9291 23.7505 12.1006 23.3251 11.2743 22.8951C11.2268 22.8666 11.1725 22.8512 11.1171 22.8505C11.0616 22.8497 11.007 22.8637 10.9587 22.891C10.1433 23.3071 9.32603 23.7208 8.46712 24.1561C8.60254 24.2352 8.70882 24.3021 8.81927 24.3613C9.32635 24.635 9.84944 24.8825 10.3389 25.1844C10.9792 25.5804 11.5938 25.5967 12.2213 25.1937C12.5177 25.0035 12.8295 24.8374 13.1394 24.6693C13.3846 24.5364 13.6375 24.4167 13.9128 24.2778ZM13.9128 28.078C13.0805 27.6497 12.2885 27.2415 11.4962 26.8359C11.3902 26.7818 11.2913 26.7373 11.1588 26.8078C10.6418 27.0831 10.1161 27.3392 9.59622 27.6049C9.3494 27.731 9.1061 27.8629 8.85704 27.9945C8.87945 28.0265 8.88585 28.0441 8.89802 28.0521C8.92908 28.0721 8.96114 28.0905 8.99406 28.1072C9.56261 28.4097 10.135 28.7049 10.6984 29.0167C11.2122 29.3009 11.7081 29.3048 12.2203 29.0071C12.6948 28.7311 13.1849 28.482 13.6673 28.2202C13.7393 28.1814 13.8088 28.1395 13.9122 28.078H13.9128ZM21.1257 28.0067C21.0412 27.9542 20.9996 27.925 20.9551 27.9013C20.3835 27.597 19.8118 27.2928 19.2398 26.9886C18.9078 26.8119 18.5755 26.7553 18.2276 26.9566C17.9151 27.1362 17.5966 27.3062 17.2768 27.473C16.8945 27.6728 16.5085 27.8652 16.0968 28.0742C16.1398 28.1105 16.1851 28.144 16.2325 28.1744C16.8478 28.5016 17.4647 28.8262 18.0797 29.154C18.3716 29.3099 18.6594 29.3566 18.961 29.1722C19.1851 29.0355 19.4162 28.9129 19.6473 28.7881C20.124 28.5342 20.602 28.2832 21.125 28.0067H21.1257ZM13.9106 20.2765C13.8714 20.2443 13.8302 20.2146 13.7874 20.1875C13.1551 19.8584 12.5248 19.5258 11.8864 19.2085C11.8074 19.1695 11.6716 19.1832 11.5877 19.2245C10.8098 19.6087 10.0374 20.0028 9.26425 20.3959C9.16021 20.4487 9.06097 20.5111 8.93387 20.5838C9.59366 20.9289 10.216 21.2535 10.8377 21.5797C11.0122 21.6713 11.1831 21.6927 11.3601 21.5839C11.4696 21.5167 11.5842 21.4558 11.6988 21.3979C12.423 21.0297 13.1477 20.6629 13.9106 20.2765ZM16.1137 20.2835C16.9611 20.7208 17.7941 21.1479 18.6245 21.5813C18.8166 21.6819 18.9943 21.6636 19.1777 21.566C19.4511 21.4203 19.7267 21.2798 20.0014 21.1373L21.0578 20.5883C20.9954 20.546 20.9618 20.5175 20.923 20.4974C20.2434 20.143 19.5599 19.7953 18.8845 19.432C18.5003 19.2261 18.119 19.1608 17.7205 19.3724C17.2074 19.6469 16.6957 19.9228 16.1854 20.2003C16.1579 20.2141 16.1419 20.2496 16.1137 20.2835ZM28.4067 24.338C28.371 24.3043 28.3324 24.2738 28.2915 24.2467C27.5603 23.8767 26.8275 23.5104 26.097 23.1384C26.0345 23.1037 25.9641 23.0854 25.8926 23.0854C25.821 23.0854 25.7507 23.1037 25.6882 23.1384C25.037 23.4727 24.3846 23.805 23.7034 24.1533C23.7398 24.1881 23.7792 24.2196 23.8212 24.2474C24.5303 24.6126 25.2422 24.9731 25.9491 25.3429C26.1117 25.428 26.2561 25.4319 26.4174 25.3493C27.0711 25.0125 27.7274 24.6821 28.4077 24.338H28.4067ZM1.56961 24.3328C2.27198 24.6875 2.93529 25.0179 3.59315 25.3573C3.74137 25.4341 3.86814 25.4344 4.01284 25.3573C4.71713 24.9875 5.42621 24.6232 6.13242 24.2551C6.17374 24.2291 6.21272 24.1997 6.24895 24.167C6.20957 24.1302 6.17596 24.0815 6.12954 24.0582C5.51457 23.7454 4.9012 23.4301 4.27855 23.1333C4.16315 23.0861 4.03381 23.0861 3.9184 23.1333C3.33225 23.409 2.75473 23.7028 2.1769 23.9954C1.98194 24.0963 1.79274 24.2093 1.57057 24.3328H1.56961Z" fill="white"/>
<path d="M19.5531 4.9985C20.5151 4.94984 21.3458 5.83723 21.3439 6.76337C21.3439 7.75097 20.5253 8.5753 19.5489 8.57402C18.5565 8.57242 17.7687 7.74905 17.7661 6.7813C17.7636 5.81355 18.5821 4.95368 19.5531 4.9985Z" fill="white"/>
</svg>
