<svg width="30" height="32" viewBox="0 0 30 32" fill="current" xmlns="http://www.w3.org/2000/svg">
<path d="M0 6.41675C0.499797 6.18528 0.99735 5.94901 1.50003 5.72363C1.98508 5.50595 2.47718 5.30366 2.96256 5.08695C3.27898 4.94525 3.58642 4.78367 3.90284 4.64197C4.22856 4.49642 4.56357 4.37139 4.88897 4.2252C5.37306 4.0072 5.85073 3.77638 6.33386 3.55453C6.70061 3.38687 7.07121 3.22946 7.43957 3.06339C7.87332 2.86751 8.30516 2.66458 8.73859 2.46966C9.05918 2.32572 9.3865 2.19107 9.70965 2.04969C9.89559 1.96858 10.0796 1.88299 10.264 1.79835C10.6435 1.62363 11.0237 1.44763 11.4043 1.27387C11.8496 1.06998 12.2942 0.864478 12.7415 0.664752C13.062 0.521769 13.3884 0.389046 13.7116 0.250552C13.834 0.197975 13.9526 0.133537 14.0786 0.0902578C14.1948 0.0464808 14.3167 0.0198073 14.4406 0.0110725C14.7714 0.000172475 15.1042 0.0245372 15.4344 0.00209601C15.7229 -0.0174599 15.955 0.103402 16.1987 0.215608C16.5157 0.361475 16.8357 0.501252 17.1547 0.643914C17.4079 0.759325 17.6644 0.872493 17.9209 0.987905C18.2376 1.13121 18.5528 1.27643 18.8698 1.42006C19.1869 1.56368 19.5059 1.7041 19.8249 1.84548C20.1589 1.99327 20.4942 2.1385 20.8273 2.28821C21.0751 2.39945 21.3194 2.51807 21.5666 2.62964C21.8917 2.77647 22.2196 2.91817 22.5441 3.06564C22.8599 3.2099 23.1705 3.36571 23.4873 3.50741C23.8152 3.6536 24.1496 3.78536 24.4785 3.92962C24.7702 4.05786 25.0588 4.19315 25.3486 4.32555C25.7275 4.49867 26.1062 4.67178 26.4848 4.8449C26.8178 4.99686 27.1493 5.15106 27.4843 5.29853C27.8126 5.44344 28.1467 5.57552 28.4734 5.72331C28.8385 5.88842 29.1985 6.06538 29.5605 6.23625C29.6791 6.29236 29.8009 6.34301 29.9131 6.40745C29.9328 6.42052 29.9494 6.43784 29.9615 6.45815C29.9737 6.47845 29.9811 6.50122 29.9833 6.52478C29.966 7.02586 29.9631 7.52855 29.9138 8.02674C29.8718 8.45056 29.774 8.86924 29.6996 9.29595C29.6355 9.29947 29.5906 9.3046 29.5438 9.3046C29.2392 9.3046 28.9347 9.3046 28.6301 9.3046L0.820385 9.31454C0.570967 9.31454 0.576418 9.31294 0.511018 9.0709C0.393041 8.63425 0.266409 8.20018 0.146829 7.76418C0.112206 7.63498 0.0894441 7.49809 0.0554618 7.36569C0.0415391 7.33512 0.0228152 7.30698 0 7.28233V6.41675Z"/>
<path d="M0.609375 31.9998C0.635343 31.0211 0.661631 30.0442 0.68824 29.0475C0.745946 29.044 0.802369 29.0376 0.858793 29.0376C10.2428 29.0376 19.6269 29.0376 29.0109 29.0376C29.2228 29.0376 29.2232 29.0376 29.2232 29.2501C29.2232 29.5438 29.2283 29.8375 29.2232 30.1311C29.21 30.7543 29.1911 31.3773 29.1747 32.0002L0.609375 31.9998Z"/>
<path d="M27.8227 28.1711H2.08398C2.08398 28.0108 2.08398 27.862 2.08398 27.7139C2.08751 27.1689 2.08783 26.6239 2.09777 26.0789C2.10194 25.8455 2.1279 25.6128 2.14073 25.3794C2.1465 25.2733 2.21863 25.2681 2.29718 25.263C2.55108 25.2463 2.5514 25.2457 2.5514 24.9934V12.3943C2.5514 12.1237 2.5514 12.1176 2.28563 12.1057C2.17343 12.1013 2.13592 12.0621 2.13848 11.9535C2.14393 11.74 2.14554 11.5258 2.13848 11.3123C2.13207 11.1276 2.11284 10.9433 2.09553 10.759C2.08623 10.6592 2.13368 10.6233 2.22568 10.6256C2.27345 10.6256 2.32186 10.6256 2.36995 10.6256H27.4675C27.5743 10.6256 27.6813 10.6304 27.7881 10.64C27.9776 10.6567 28.0051 10.715 27.9782 10.9587C27.9462 11.2536 27.9195 11.5495 27.9003 11.8454C27.8849 12.0875 27.8878 12.0907 27.6461 12.1019C27.5877 12.1048 27.5297 12.1125 27.4537 12.1198C27.4489 12.182 27.4403 12.2433 27.4403 12.3042C27.4403 16.5573 27.439 20.8105 27.4364 25.0636C27.4364 25.2181 27.4807 25.2797 27.6349 25.2627C27.6913 25.2563 27.7493 25.2697 27.8237 25.2758L27.8227 28.1711ZM20.1075 25.2031C20.1689 25.2142 20.231 25.2218 20.2934 25.2258C21.6238 25.2258 22.9542 25.2266 24.2844 25.2281C24.4171 25.2281 24.4684 25.1918 24.4681 25.046C24.4642 20.8039 24.4631 16.5615 24.4646 12.3186C24.4646 12.1221 24.4556 12.1131 24.2546 12.1131C22.9457 12.1131 21.6367 12.1131 20.3274 12.1131C20.1107 12.1131 20.1075 12.1173 20.1075 12.3404V25.2031ZM9.80599 12.1144H5.73196C5.51556 12.1144 5.51524 12.1144 5.51524 12.3337C5.51524 16.5654 5.51524 20.7962 5.51524 25.0261V25.2111H9.80599V12.1144ZM12.8455 25.2146C12.9135 25.2204 12.9555 25.2268 12.9974 25.2268C14.3276 25.2268 15.6583 25.2268 16.9878 25.2303C17.1369 25.2303 17.1459 25.1627 17.1459 25.0453C17.1435 20.8035 17.1435 16.5619 17.1459 12.3205C17.1459 12.1647 17.1106 12.1093 16.9416 12.1102C15.6542 12.1176 14.3667 12.1144 13.0795 12.1144C12.8448 12.1144 12.8445 12.1144 12.8445 12.3494V25.2146H12.8455Z"/>
</svg>
