<svg width="38" height="30" viewBox="0 0 38 30" fill="none" xmlns="http://www.w3.org/2000/svg">
<path d="M16.8461 19.6196H16.8371H7.44189L12.1444 21.2758L9.27996 25.3366L13.9283 23.7131L13.8824 29.0232L16.8413 24.7137L19.8008 29.0232L19.7549 23.7131L24.4032 25.3366L21.5389 21.2758L26.2406 19.6196H16.8461Z" fill="white"/>
<path d="M13.6192 8.80149C14.2192 9.71879 15.2566 11.6777 15.5635 12.729C15.9323 13.9789 16.3558 17.88 16.3558 17.88H17.9231C17.9231 17.88 18.1147 15.7462 18.2863 15.0552C18.4619 14.3469 19.0557 13.0019 19.3973 12.3561C19.6605 11.8548 20.3271 10.9291 20.6979 10.5014C21.0972 10.041 22.4763 8.83482 22.4763 8.83482L21.8256 8.00154C21.8256 8.00154 20.5542 9.01328 20.1841 9.40422C19.7528 9.85767 18.9827 10.852 18.6564 11.3867C18.287 11.9971 17.3704 13.9338 17.3704 13.9338C17.3704 13.9338 16.9072 12.0763 16.726 11.4645C16.2843 9.97085 14.5442 7.29812 13.5317 6.11764C12.8908 5.37047 11.3395 3.98029 10.6389 3.44352C9.95974 2.92272 7.67587 1.72836 7.67587 1.72836C7.67587 1.72836 6.00932 0.992294 5.43366 0.793002C4.56917 0.5131 3.68602 0.294517 2.79078 0.138879C2.09986 0.0374975 0 0 0 0V1.50545C0 1.50545 3.20951 1.74502 4.23027 2.05264C5.82738 2.53316 8.82232 3.98237 10.1208 5.02327C11.1194 5.82322 12.9158 7.72448 13.6192 8.80149Z" fill="white"/>
<path d="M23.5411 6.80072L22.6318 7.32568L23.1568 8.23495L24.0661 7.70998L23.5411 6.80072Z" fill="white"/>
<path d="M25.4989 6.10648L24.4771 6.34766L24.7182 7.36951L25.7401 7.12833L25.4989 6.10648Z" fill="white"/>
<path d="M26.5293 6.05768L26.4917 7.10693L27.541 7.14449L27.5785 6.09523L26.5293 6.05768Z" fill="white"/>
<path d="M34.6115 9.69882C36.4827 9.39508 37.7534 7.63197 37.4496 5.7608C37.1459 3.88962 35.3828 2.61896 33.5116 2.9227C31.6404 3.22643 30.3698 4.98954 30.6735 6.86072C30.9772 8.73189 32.7403 10.0026 34.6115 9.69882Z" fill="white"/>
</svg>
