<svg width="25" height="25" viewBox="0 0 25 25" fill="current" xmlns="http://www.w3.org/2000/svg">
<path d="M12.5 13.3333C16.1819 13.3333 19.1667 10.3486 19.1667 6.66667C19.1667 2.98477 16.1819 0 12.5 0C8.8181 0 5.83333 2.98477 5.83333 6.66667C5.83333 10.3486 8.8181 13.3333 12.5 13.3333Z"/>
<path d="M7.71646 12.6179C7.76428 12.5981 7.81221 12.5786 7.86024 12.5594C9.13679 13.5659 10.7483 14.1664 12.5 14.1664C14.2517 14.1664 15.8632 13.5659 17.1398 12.5594C17.1878 12.5786 17.2357 12.5981 17.2835 12.6179C18.8001 13.2461 20.1781 14.1668 21.3388 15.3276C22.4996 16.4883 23.4203 17.8663 24.0485 19.3829C24.6767 20.8994 25 22.5 25 25H0C0 22.5 0.323322 20.8994 0.951505 19.3829C1.57969 17.8663 2.50043 16.4883 3.66116 15.3276C4.8219 14.1668 6.19989 13.2461 7.71646 12.6179Z" />
</svg>
