<svg width="77" height="77" viewBox="0 0 77 77" fill="none" xmlns="http://www.w3.org/2000/svg">
<path d="M46 7.5C46 11.6421 42.6421 15 38.5 15C34.3579 15 31 11.6421 31 7.5C31 3.35786 34.3579 0 38.5 0C42.6421 0 46 3.35786 46 7.5Z" fill="white"/>
<path d="M68 60.5C68 64.6421 64.6421 68 60.5 68C56.3579 68 53 64.6421 53 60.5C53 56.3579 56.3579 53 60.5 53C64.6421 53 68 56.3579 68 60.5Z" fill="#8C8C8C"/>
<path d="M68 16.5C68 20.6421 64.6421 24 60.5 24C56.3579 24 53 20.6421 53 16.5C53 12.3579 56.3579 9 60.5 9C64.6421 9 68 12.3579 68 16.5Z" fill="#E6E6E6"/>
<path d="M24 60.5C24 64.6421 20.6421 68 16.5 68C12.3579 68 9 64.6421 9 60.5C9 56.3579 12.3579 53 16.5 53C20.6421 53 24 56.3579 24 60.5Z" fill="#505050"/>
<path d="M24 16.5C24 20.6421 20.6421 24 16.5 24C12.3579 24 9 20.6421 9 16.5C9 12.3579 12.3579 9 16.5 9C20.6421 9 24 12.3579 24 16.5Z" fill="#373737"/>
<path d="M77 38.5C77 42.6421 73.6421 46 69.5 46C65.3579 46 62 42.6421 62 38.5C62 34.3579 65.3579 31 69.5 31C73.6421 31 77 34.3579 77 38.5Z" fill="#B5B5B5"/>
<path d="M15 38.5C15 42.6421 11.6421 46 7.5 46C3.35786 46 0 42.6421 0 38.5C0 34.3579 3.35786 31 7.5 31C11.6421 31 15 34.3579 15 38.5Z" fill="#3D3D3D"/>
<path d="M46 69.5C46 73.6421 42.6421 77 38.5 77C34.3579 77 31 73.6421 31 69.5C31 65.3579 34.3579 62 38.5 62C42.6421 62 46 65.3579 46 69.5Z" fill="#6B6B6B"/>
</svg>
