<?xml version="1.0" standalone="no"?>
<!DOCTYPE svg PUBLIC "-//W3C//DTD SVG 20010904//EN"
 "http://www.w3.org/TR/2001/REC-SVG-20010904/DTD/svg10.dtd">
<svg version="1.0" xmlns="http://www.w3.org/2000/svg"
 width="512.000000pt" height="512.000000pt" viewBox="0 0 512.000000 512.000000"
 preserveAspectRatio="xMidYMid meet">

<g transform="translate(0.000000,512.000000) scale(0.100000,-0.100000)"
fill="#000000" stroke="none">
<path d="M2134 4391 c-79 -20 -174 -63 -250 -114 -54 -36 -63 -36 -109 -2 -61
45 -107 60 -185 60 -65 0 -81 -4 -119 -29 -53 -34 -85 -68 -112 -120 -23 -42
-12 -42 -139 -7 -95 26 -256 28 -338 5 -168 -49 -298 -167 -384 -350 -29 -62
-33 -78 -33 -159 0 -69 5 -99 19 -130 44 -90 115 -156 235 -215 55 -27 61 -34
61 -61 l0 -30 133 6 c72 4 139 9 147 12 8 2 137 8 285 13 370 12 962 -9 1140
-40 207 -36 415 -95 552 -156 17 -8 34 -14 37 -14 13 0 257 -122 341 -170 202
-117 514 -341 625 -450 187 -183 192 -187 267 -204 90 -20 155 -9 216 38 59
45 87 104 87 188 0 57 -5 76 -35 132 -21 41 -35 80 -35 103 0 47 -36 117 -78
155 -31 26 -33 31 -19 46 64 72 77 171 32 247 -35 61 -102 105 -169 112 l-52
5 0 117 c1 108 -1 120 -27 173 -55 113 -224 230 -352 246 l-60 7 -5 90 c-9
142 -66 238 -180 302 -184 103 -407 83 -543 -50 l-49 -48 -35 16 c-57 27 -132
30 -177 6 -42 -22 -56 -20 -56 7 0 30 -47 119 -84 160 -44 48 -118 87 -206
107 -89 20 -256 18 -346 -4z"/>
<path d="M785 3071 c-164 -22 -235 -90 -235 -226 0 -69 8 -94 43 -133 l21 -22
-42 -36 c-73 -63 -76 -166 -6 -222 32 -26 34 -30 34 -91 l0 -63 60 -59 c33
-32 68 -63 79 -68 17 -10 20 -6 31 42 39 178 90 336 121 373 8 9 18 9 47 -1
185 -64 294 -46 498 85 20 12 24 11 46 -12 86 -94 292 -110 441 -36 l39 19 39
-27 c115 -79 250 -83 463 -13 35 12 40 11 52 -6 31 -43 44 -55 69 -61 37 -9
66 1 113 42 42 35 43 36 63 18 14 -12 41 -19 85 -22 59 -4 64 -6 64 -27 0 -41
36 -109 79 -147 73 -67 163 -97 286 -98 l70 0 0 -72 c0 -62 4 -79 27 -114 14
-22 38 -48 53 -58 31 -20 30 -22 -9 -131 -38 -105 -35 -241 6 -284 26 -29 80
-27 164 5 58 22 79 25 132 20 134 -12 187 -60 185 -168 -1 -32 2 -56 6 -53 16
9 34 115 27 163 l-6 49 62 13 c85 16 156 51 218 107 70 63 94 112 94 193 0 79
-16 113 -90 186 -30 30 -54 58 -54 62 0 5 -42 51 -92 103 -378 388 -826 631
-1318 715 -91 15 -271 29 -595 44 -273 12 -1296 20 -1370 11z"/>
<path d="M1152 2404 c-67 -33 -105 -81 -100 -126 4 -41 24 -46 113 -23 48 12
86 14 159 9 92 -7 98 -6 121 16 34 32 31 63 -9 103 -38 38 -69 47 -165 47 -52
0 -79 -6 -119 -26z"/>
<path d="M2300 2424 c-127 -47 -196 -136 -144 -188 19 -20 32 -20 131 -1 125
24 222 18 348 -20 11 -3 28 0 39 8 46 34 -19 119 -134 174 -43 21 -73 27 -140
30 -47 1 -92 0 -100 -3z"/>
<path d="M1193 2025 c-37 -16 -73 -68 -73 -105 0 -14 9 -39 19 -56 38 -63 128
-70 175 -13 36 42 42 74 23 115 -28 58 -89 84 -144 59z"/>
<path d="M2266 1997 c-77 -44 -96 -131 -43 -201 88 -114 271 -17 234 124 -11
44 -33 69 -74 86 -45 19 -72 17 -117 -9z"/>
<path d="M1434 1605 c-145 -72 -95 -246 81 -283 80 -17 165 11 180 59 11 32
-12 47 -103 66 -66 14 -90 15 -124 6 -49 -13 -68 -4 -68 32 0 63 92 107 182
87 77 -18 100 -16 96 9 -2 16 -15 25 -48 35 -71 21 -139 18 -196 -11z"/>
<path d="M3695 1530 c-11 -5 -33 -12 -50 -15 -17 -4 -49 -26 -72 -51 -37 -38
-43 -50 -43 -88 0 -27 7 -52 18 -65 17 -21 18 -21 62 -4 59 22 66 28 74 61 3
17 25 42 56 65 51 39 63 70 38 95 -14 14 -54 15 -83 2z"/>
<path d="M1497 1193 c-4 -3 -7 -10 -7 -14 0 -14 52 -57 103 -85 43 -23 57 -26
111 -21 33 3 99 18 146 34 70 23 86 32 88 51 4 29 -14 29 -114 -3 -144 -46
-174 -44 -260 21 -31 24 -55 30 -67 17z"/>
<path d="M3330 1118 c-78 -121 -211 -228 -383 -308 -121 -55 -211 -85 -397
-129 -262 -63 -737 -54 -1170 24 l-35 6 30 -13 c17 -8 64 -22 105 -31 41 -10
91 -22 110 -27 181 -47 894 -46 982 1 10 5 28 9 41 9 13 0 48 7 78 15 30 9 79
23 109 31 30 9 64 19 75 24 11 4 36 14 55 21 85 30 251 109 270 129 3 3 30 24
61 47 63 49 106 94 134 141 11 17 26 32 34 32 15 0 68 16 106 31 14 5 6 8 -28
8 -50 1 -78 11 -112 41 -20 18 -21 17 -65 -52z"/>
</g>
</svg>
